<svg version="1.0" xmlns="http://www.w3.org/2000/svg" width="682.667" height="682.667" viewBox="0 0 512 512"><path d="M10.5 17.8c-3.8 1.3-7.3 4.3-8.9 7.7C.1 28.5 0 47.9 0 228.7c0 214.9-.2 204 5 217.9 6.5 17.5 21.4 33.6 38.5 41.4 2.8 1.2 8.8 3.3 13.5 4.6l8.5 2.2 189.5.1c158.4 0 190.6-.2 196.5-1.4 18.8-3.7 36.7-15.7 47.7-31.7 4-6 9-16.8 10.4-22.9.4-1.9 1-4.1 1.3-4.9.3-.8.7-68.8.8-151 .4-168.4 1-154.7-7.2-159.6l-4.2-2.4H383V75.5c0-50.3-.1-50.9-6.3-55.6l-3.2-2.4-180.5-.2c-99.3 0-181.4.2-182.5.5zm342.7 222.4l.3 193.3 2.8 8.3c2.9 8.7 5.9 14.9 9.7 20.1l2.1 3.1H218.8c-160.5 0-153.6.2-164.5-5.1-10.3-5.1-20.6-18.3-23.3-30.2-.6-2.6-1-75.1-1-193.5V47h323l.2 193.2zm128.8 48c0 148.1.2 142.1-5.2 152.8-1.3 2.5-5 7.2-8.3 10.5-9.8 9.8-18.7 13.2-35.6 13.4-16.6.2-26.3-3.3-36.4-13.4-6.3-6.2-9.8-12.4-12.1-21-1.1-4.1-1.4-30.3-1.4-142.3V151h99v137.2z"/><path d="M73.2 91.1c-7.2 3.6-10.1 12.2-6.6 19.2 2.2 4.2 4.2 6.1 8.3 7.5 2.5.9 32.5 1.2 117.8 1.2 110.3 0 114.5-.1 118.1-1.9 4.1-2.1 8.2-8.3 8.2-12.5 0-4.3-2.9-10.2-6.3-12.7l-3.2-2.4-116-.3-116-.2-4.3 2.1zm.3 63.6c-3.8 2-4.9 3.2-6.9 7-3.4 6.8-.7 15.2 6.2 19.1l4 2.2h114.8c114.6 0 114.8 0 119.1-2.1 7.3-3.5 10.3-12.1 6.7-19.2-2.2-4.2-4.2-6.1-8.3-7.5-2.5-.9-32.5-1.2-118-1.2-103.3.1-114.9.2-117.6 1.7zm111.6 64.2c-1.8 1-4.4 3.5-5.7 5.7l-2.4 3.9v58.9c0 58.3 0 59 2.1 63.4 1.6 3.3 3.2 4.9 6.3 6.3 3.8 1.7 7.7 1.9 62.9 1.9 56.5 0 58.9-.1 62.6-2 2.7-1.3 4.6-3.3 6-6.3 2.1-4.3 2.1-5.4 2.1-63.1 0-55.6-.1-58.9-1.9-62.4-1.1-2.2-3.5-4.6-5.9-6l-4-2.2h-59.3c-55.2.1-59.6.2-62.8 1.9zM289 288v41h-82v-82h82v41zM73.3 242.8c-4.2 2.3-7.3 6.4-8 10.7-.8 4.8 2 11.6 6 14.6 3.2 2.4 3.3 2.4 31.2 2.7 24.8.3 28.3.1 31.8-1.4 4.3-2 8.7-8.4 8.7-12.7 0-4.4-2.9-10.2-6.3-12.8-3.2-2.4-3.3-2.4-31.7-2.6-25.5-.3-28.8-.1-31.7 1.5zm.2 63.9c-4 2.2-5.3 3.6-7 7.7-3.3 7.8-.5 15.1 7.3 19 2.8 1.4 7 1.6 30.9 1.6 26.7-.1 27.8-.2 30.7-2.3 4.7-3.3 6.4-5.8 7.2-10.5 1-6.7-2.6-13.2-8.9-16-2-.8-10.7-1.2-30-1.2-23 .1-27.7.3-30.2 1.7zm-.4 88.4c-4.8 2.9-5.8 4.1-7.1 8.6-2.2 7.4.7 14.2 7.7 17.7 2.9 1.4 14.2 1.6 118.3 1.6 111 0 115.2-.1 118.8-1.9 4.1-2.1 8.2-8.3 8.2-12.5 0-4.3-2.9-10.2-6.3-12.7l-3.2-2.4-116.5-.3c-116.4-.2-116.5-.2-119.9 1.9z"/></svg>